<svg width="16" height="14" viewBox="0 0 16 14" fill="none" xmlns="http://www.w3.org/2000/svg">
<path d="M6.2 7.00001C6.2 6.00589 7.00589 5.20001 8 5.20001C8.99411 5.20001 9.8 6.00589 9.8 7.00001C9.8 7.99412 8.99411 8.80001 8 8.80001C7.00589 8.80001 6.2 7.99412 6.2 7.00001Z" fill="#3699FF"/>
<path fill-rule="evenodd" clip-rule="evenodd" d="M0 7.00001C0 8.31151 0.339971 8.75319 1.01991 9.63654C2.37757 11.4004 4.65449 13.4 8 13.4C11.3455 13.4 13.6224 11.4004 14.9801 9.63654C15.66 8.75319 16 8.31151 16 7.00001C16 5.68851 15.66 5.24683 14.9801 4.36347C13.6224 2.59965 11.3455 0.600006 8 0.600006C4.65449 0.600006 2.37757 2.59965 1.01991 4.36347C0.339971 5.24683 0 5.68851 0 7.00001ZM8 4.00001C6.34315 4.00001 5 5.34315 5 7.00001C5 8.65686 6.34315 10 8 10C9.65685 10 11 8.65686 11 7.00001C11 5.34315 9.65685 4.00001 8 4.00001Z" fill="#3699FF"/>
</svg>
