<!-- <svg
                  width="24"
                  height="24"
                  viewBox="0 0 24 24"
                  fill="none"
                  xmlns="http://www.w3.org/2000/svg"
                >
                  <path
                    d="M21 10H13V11C13 11.6 12.6 12 12 12C11.4 12 11 11.6 11 11V10H3C2.4 10 2 10.4 2 11V13H22V11C22 10.4 21.6 10 21 10Z"
                    fill="currentColor"
                  ></path>
                  <path
                    opacity="0.3"
                    d="M12 12C11.4 12 11 11.6 11 11V3C11 2.4 11.4 2 12 2C12.6 2 13 2.4 13 3V11C13 11.6 12.6 12 12 12Z"
                    fill="currentColor"
                  ></path>
                  <path
                    opacity="0.3"
                    d="M18.1 21H5.9C5.4 21 4.9 20.6 4.8 20.1L3 13H21L19.2 20.1C19.1 20.6 18.6 21 18.1 21ZM13 18V15C13 14.4 12.6 14 12 14C11.4 14 11 14.4 11 15V18C11 18.6 11.4 19 12 19C12.6 19 13 18.6 13 18ZM17 18V15C17 14.4 16.6 14 16 14C15.4 14 15 14.4 15 15V18C15 18.6 15.4 19 16 19C16.6 19 17 18.6 17 18ZM9 18V15C9 14.4 8.6 14 8 14C7.4 14 7 14.4 7 15V18C7 18.6 7.4 19 8 19C8.6 19 9 18.6 9 18Z"
                    fill="currentColor"
                  ></path></svg
                > -->
                <svg xmlns="http://www.w3.org/2000/svg" xmlns:xlink="http://www.w3.org/1999/xlink" width="24px" height="24px" viewBox="0 0 24 24" version="1.1">
    <g stroke="none" stroke-width="1" fill="none" fill-rule="evenodd">
        <rect x="0" y="0" width="24" height="24"></rect>
        <rect fill="currentColor" x="4" y="4" width="7" height="7" rx="1.5"></rect>
        <path d="M5.5,13 L9.5,13 C10.3284271,13 11,13.6715729 11,14.5 L11,18.5 C11,19.3284271 10.3284271,20 9.5,20 L5.5,20 C4.67157288,20 4,19.3284271 4,18.5 L4,14.5 C4,13.6715729 4.67157288,13 5.5,13 Z M14.5,4 L18.5,4 C19.3284271,4 20,4.67157288 20,5.5 L20,9.5 C20,10.3284271 19.3284271,11 18.5,11 L14.5,11 C13.6715729,11 13,10.3284271 13,9.5 L13,5.5 C13,4.67157288 13.6715729,4 14.5,4 Z M14.5,13 L18.5,13 C19.3284271,13 20,13.6715729 20,14.5 L20,18.5 C20,19.3284271 19.3284271,20 18.5,20 L14.5,20 C13.6715729,20 13,19.3284271 13,18.5 L13,14.5 C13,13.6715729 13.6715729,13 14.5,13 Z" fill="currentColor" opacity="0.3"></path>
    </g>
</svg>